<svg width="976" height="322" viewBox="0 0 976 322" fill="none" xmlns="http://www.w3.org/2000/svg">
<path d="M0 20C0 8.9543 8.9543 0 20 0H956C967.046 0 976 8.95431 976 20V302C976 313.046 967.046 322 956 322H20C8.95428 322 0 313.046 0 302V20Z" fill="url(#paint0_linear_198_2)"/>
<mask id="mask0_198_2" style="mask-type:alpha" maskUnits="userSpaceOnUse" x="0" y="0" width="976" height="322">
<path d="M0 20C0 8.9543 8.9543 0 20 0H956C967.046 0 976 8.95431 976 20V302C976 313.046 967.046 322 956 322H20C8.95428 322 0 313.046 0 302V20Z" fill="#DD2679"/>
</mask>
<g mask="url(#mask0_198_2)">
<path d="M0.00479126 20C0.00479126 8.95431 8.9591 0 20.0048 0H956.005C967.051 0 976.005 8.95431 976.005 20V147.488C976.005 157.154 969.092 165.436 959.583 167.166L23.5829 337.368C11.306 339.6 0.00479126 330.169 0.00479126 317.691V20Z" fill="url(#paint1_radial_198_2)"/>
<g filter="url(#filter0_f_198_2)">
<path d="M-80.7507 455.89L973.182 335.587C983.285 334.434 990.914 325.884 990.914 315.716V136.389C990.914 122.113 976.382 112.404 963.13 117.716C890.168 146.965 760.924 195.078 664.254 218.522C525.993 252.052 316.322 186.148 214.525 172.274C138.001 161.844 -11.5932 198.92 -89.034 222.298C-97.3848 224.819 -103.019 232.545 -103.019 241.268V436.019C-103.019 447.964 -92.6179 457.245 -80.7507 455.89Z" fill="url(#paint2_linear_198_2)"/>
</g>
</g>
<defs>
<filter id="filter0_f_198_2" x="-183.019" y="36.2432" width="1253.93" height="499.779" filterUnits="userSpaceOnUse" color-interpolation-filters="sRGB">
<feFlood flood-opacity="0" result="BackgroundImageFix"/>
<feBlend mode="normal" in="SourceGraphic" in2="BackgroundImageFix" result="shape"/>
<feGaussianBlur stdDeviation="40" result="effect1_foregroundBlur_198_2"/>
</filter>
<linearGradient id="paint0_linear_198_2" x1="976" y1="161.289" x2="150.013" y2="378.313" gradientUnits="userSpaceOnUse">
<stop stop-color="#E73635"/>
<stop offset="1" stop-color="#6AD5FF"/>
</linearGradient>
<radialGradient id="paint1_radial_198_2" cx="0" cy="0" r="1" gradientUnits="userSpaceOnUse" gradientTransform="translate(960.416 67.9264) rotate(-175.867) scale(942.529 1962.58)">
<stop stop-color="#8FB3FF"/>
<stop offset="0.277176" stop-color="#9D6BE8"/>
<stop offset="0.542906" stop-color="#DE2778"/>
<stop offset="1" stop-color="#B03DE2"/>
</radialGradient>
<linearGradient id="paint2_linear_198_2" x1="954.45" y1="211.585" x2="-104.133" y2="516.85" gradientUnits="userSpaceOnUse">
<stop offset="0.0129279" stop-color="#E37777"/>
<stop offset="0.380614" stop-color="#F2554C"/>
<stop offset="0.61473" stop-color="#FEC458"/>
<stop offset="0.842802" stop-color="#FEC957"/>
<stop offset="1" stop-color="#DB788D"/>
</linearGradient>
</defs>
</svg>
